<svg width="53" height="53" viewBox="0 0 53 53" fill="none" xmlns="http://www.w3.org/2000/svg">
<path d="M48.5812 8.8362H19.8133C19.5448 6.45011 18.4149 4.21815 16.6218 2.58686C14.5247 0.6795 11.7947 -0.230549 8.96538 0.0498561C3.93868 0.529619 0.00109768 5.04084 0.00109768 10.3198V43.063H0.00327136C0.00648014 45.309 0.751537 47.4816 2.16505 49.2542C4.06268 51.6349 6.89623 53 9.93794 53H48.5812C51.0169 53 52.9976 51.0193 52.9976 48.5836V13.2526C52.9976 10.8168 51.0169 8.8362 48.5812 8.8362ZM2.20925 10.3198C2.20925 6.1665 5.26928 2.62132 9.17457 2.24714C11.3892 2.04654 13.5058 2.73777 15.1361 4.22033C16.7436 5.68342 17.6666 7.76768 17.6666 9.94022L17.7044 36.8644C15.7852 34.461 12.9376 33.1284 9.92728 33.1284C9.16173 33.1284 8.38542 33.2146 7.61127 33.3915C5.45591 33.8831 3.5647 35.0983 2.20935 36.7641V10.3198H2.20925ZM50.7894 48.5836C50.7894 49.8008 49.7985 50.7917 48.5812 50.7917H9.93794C7.57235 50.7917 5.36844 49.7297 3.89127 47.8773C2.4141 46.0249 1.8772 43.6011 2.41844 41.2279C3.05026 38.4601 5.33501 36.1753 8.10284 35.5435C8.70992 35.4055 9.31803 35.3375 9.91859 35.3375C12.268 35.3375 14.4869 36.3737 15.9792 38.2433C16.5561 38.9625 17.4941 39.2267 18.3739 38.9183C19.2721 38.6035 19.8748 37.7592 19.8748 36.8179V28.0628L40.0719 48.26C40.2876 48.4756 40.5701 48.5835 40.8526 48.5835C41.1351 48.5835 41.4176 48.4756 41.6333 48.26C42.0646 47.8287 42.0646 47.13 41.6333 46.6988L19.8748 24.9404V11.0443H48.5812C49.7985 11.0443 50.7894 12.0352 50.7894 13.2525V48.5836Z" fill="black"/>
</svg>
