<svg width="49" height="59" viewBox="0 0 49 59" fill="none" xmlns="http://www.w3.org/2000/svg">
<path d="M46.8571 23.8808L43.6685 20.3542C44.2883 19.307 44.5095 18.0865 44.2891 16.8776C44.0467 15.5483 43.3012 14.3929 42.1899 13.6243L37.5893 10.4425C37.6183 9.69972 37.4818 8.95371 37.1796 8.25068C36.6459 7.00933 35.6609 6.05008 34.4056 5.54954L24.2317 1.49306C22.9985 1.00142 21.6549 1.0147 20.4485 1.50992C19.5306 0.578624 18.2556 0 16.8477 0H5.89497C3.10558 0 0.836254 2.26933 0.836254 5.05871V48.465C0.836254 54.2741 5.56228 59 11.3713 59C14.0149 59 16.4339 58.021 18.2855 56.4069C18.3121 56.3879 18.3381 56.3678 18.3629 56.3455L38.0867 38.5951C38.4423 38.275 38.4712 37.7272 38.1512 37.3715C37.831 37.0158 37.2829 36.987 36.9276 37.3071L36.1151 38.0384L33.475 35.1185L37.6199 29.1251L41.3882 33.2928L39.6737 34.8358C39.3181 35.1559 39.2893 35.7037 39.6093 36.0594C39.7803 36.2495 40.0164 36.3462 40.2535 36.3462C40.46 36.3462 40.6673 36.2729 40.8329 36.1238L46.4975 31.0259C47.4999 30.1196 48.0891 28.8772 48.157 27.5278C48.225 26.1783 47.7634 24.883 46.8571 23.8808ZM42.5844 17.1883C42.7437 18.0622 42.5531 18.946 42.0477 19.6767L39.6952 23.0783L34.3394 19.3744L37.1748 12.2628L41.2042 15.0495C41.935 15.5548 42.4251 16.3143 42.5844 17.1883ZM34.3495 30.8078L30.7683 28.331L33.6809 21.0258L38.7095 24.5034L34.3495 30.8078ZM29.0039 38.5372L27.1971 37.2877L30.1098 29.9824L33.3638 32.2329L29.0039 38.5372ZM30.3374 24.7332L27.8265 23.732C27.3823 23.5549 26.8783 23.7714 26.7009 24.2159C26.5237 24.6604 26.7404 25.1643 27.1848 25.3416L29.6956 26.3427L26.7194 33.8072L21.9064 31.8881V23.237L23.7401 23.9681C23.8454 24.0101 23.9539 24.0299 24.0607 24.0299C24.4048 24.0299 24.7305 23.8234 24.8657 23.4842C25.0429 23.0397 24.8263 22.5358 24.3819 22.3585L21.9064 21.3715V12.7205L33.3136 17.2687L30.3374 24.7332ZM20.1737 19.326H10.3598C9.88134 19.326 9.49343 19.7139 9.49343 20.1923C9.49343 20.6708 9.88134 21.0587 10.3598 21.0587H20.1737V29.0947H2.56901V21.0587H6.66754C7.14602 21.0587 7.53392 20.6708 7.53392 20.1923C7.53392 19.7139 7.14602 19.326 6.66754 19.326H2.56901V11.29H20.1735V19.326H20.1737ZM2.56901 30.8274H20.1735V38.8633H2.56901V30.8274ZM21.9064 33.7534L26.0777 35.4167L21.9064 45.8786V33.7534ZM27.3051 44.0399L28.2658 45.1024L23.7754 49.1435L27.3051 44.0399ZM23.5611 46.4073L26.5388 38.939L28.0184 39.9622L23.5611 46.4073ZM23.59 3.10267L33.7639 7.15916C34.5891 7.48815 35.2367 8.11887 35.5875 8.935C35.8288 9.49606 35.9098 10.0987 35.83 10.6887C35.8286 10.6955 35.8279 10.7024 35.8267 10.7092C35.7897 10.9704 35.7215 11.229 35.6213 11.4803L33.9552 15.6591L21.9064 10.855V5.05871C21.9064 4.32195 21.7468 3.62203 21.4624 2.99004C22.1575 2.79354 22.9002 2.82762 23.59 3.10267ZM5.89497 1.73275H16.8477C18.6815 1.73275 20.1737 3.22477 20.1737 5.05871V9.5574H2.56901V5.05871C2.56901 3.22477 4.06102 1.73275 5.89497 1.73275ZM2.56901 48.465V40.5961H20.1735V48.465C20.1735 53.3186 16.2248 57.2672 11.3713 57.2672C6.51772 57.2672 2.56901 53.3185 2.56901 48.465ZM34.8271 39.1976L29.5539 43.9432L28.3175 42.5758L32.4625 36.5825L34.8271 39.1976ZM46.4265 27.4407C46.3819 28.328 45.9944 29.1447 45.3368 29.7392L42.6762 32.1337L38.6323 27.6612L42.6657 21.8291L45.5717 25.0429C46.1676 25.7019 46.4712 26.5534 46.4265 27.4407Z" fill="black"/>
</svg>
