<svg width="22" height="22" viewBox="0 0 22 22" fill="none" xmlns="http://www.w3.org/2000/svg">
<path d="M12.9336 11C12.9336 12.0678 12.0678 12.9336 11 12.9336C9.93216 12.9336 9.06641 12.0678 9.06641 11C9.06641 9.93216 9.93216 9.06641 11 9.06641C12.0678 9.06641 12.9336 9.93216 12.9336 11Z" fill="white"/>
<path d="M14.2656 5.15625H7.73438C6.31271 5.15625 5.15625 6.31271 5.15625 7.73438V14.2656C5.15625 15.6873 6.31271 16.8438 7.73438 16.8438H14.2656C15.6873 16.8438 16.8438 15.6873 16.8438 14.2656V7.73438C16.8438 6.31271 15.6873 5.15625 14.2656 5.15625ZM11 14.2227C9.22301 14.2227 7.77734 12.777 7.77734 11C7.77734 9.22301 9.22301 7.77734 11 7.77734C12.777 7.77734 14.2227 9.22301 14.2227 11C14.2227 12.777 12.777 14.2227 11 14.2227ZM14.6953 7.94922C14.3393 7.94922 14.0508 7.66069 14.0508 7.30469C14.0508 6.94868 14.3393 6.66016 14.6953 6.66016C15.0513 6.66016 15.3398 6.94868 15.3398 7.30469C15.3398 7.66069 15.0513 7.94922 14.6953 7.94922Z" fill="white"/>
<path d="M16.1992 0H5.80078C2.60229 0 0 2.60229 0 5.80078V16.1992C0 19.3977 2.60229 22 5.80078 22H16.1992C19.3977 22 22 19.3977 22 16.1992V5.80078C22 2.60229 19.3977 0 16.1992 0ZM18.1328 14.2656C18.1328 16.3979 16.3979 18.1328 14.2656 18.1328H7.73438C5.60205 18.1328 3.86719 16.3979 3.86719 14.2656V7.73438C3.86719 5.60205 5.60205 3.86719 7.73438 3.86719H14.2656C16.3979 3.86719 18.1328 5.60205 18.1328 7.73438V14.2656Z" fill="white"/>
</svg>
