<svg width="59" height="59" viewBox="0 0 59 59" fill="none" xmlns="http://www.w3.org/2000/svg">
<g clip-path="url(#clip0)">
<path d="M7.45606 4.31311H5.44569V6.32347H7.45606V4.31311Z" fill="black"/>
<path d="M11.4768 4.31311H9.46642V6.32347H11.4768V4.31311Z" fill="black"/>
<path d="M15.4975 4.31311H13.4871V6.32347H15.4975V4.31311Z" fill="black"/>
<path d="M49.6737 13.3597H47.6633C47.6633 15.0223 46.3103 16.3753 44.6478 16.3753V18.3856C46.3103 18.3856 47.6633 19.7386 47.6633 21.4012H49.6737C49.6737 19.7386 51.0267 18.3856 52.6892 18.3856V16.3753C51.0267 16.3753 49.6737 15.0223 49.6737 13.3597ZM48.6685 18.4168C48.375 18.0218 48.0272 17.674 47.6322 17.3805C48.0272 17.087 48.375 16.7392 48.6685 16.3441C48.962 16.7392 49.3098 17.087 49.7048 17.3805C49.3098 17.674 48.962 18.0218 48.6685 18.4168Z" fill="black"/>
<path d="M55.7048 2.30273H53.6944C53.6944 3.9653 52.3414 5.31828 50.6789 5.31828V7.32864C52.3414 7.32864 53.6944 8.68161 53.6944 10.3442H55.7048C55.7048 8.68161 57.0577 7.32864 58.7203 7.32864V5.31828C57.0577 5.31828 55.7048 3.9653 55.7048 2.30273ZM54.6996 7.3598C54.4061 6.96477 54.0583 6.61697 53.6632 6.32346C54.0583 6.02995 54.4061 5.68215 54.6996 5.28712C54.9931 5.68215 55.3409 6.02995 55.7359 6.32346C55.3409 6.61697 54.9931 6.96477 54.6996 7.3598Z" fill="black"/>
<path d="M36.0223 56.8881C25.9222 56.0337 14.3747 52.2472 5.13208 46.7559L2.39095 45.1285C2.79905 44.1736 3.03527 43.1755 3.26546 42.2034C3.33381 41.9119 3.40317 41.6214 3.47554 41.334C3.68763 40.5027 3.92285 39.1477 4.19525 37.5806C4.58727 35.324 5.07478 32.5155 5.51505 31.3867L11.5361 15.9551C11.6678 15.6184 11.7874 15.2555 11.91 14.8846C12.2357 13.8935 12.5734 12.8672 13.2047 12.3124C13.5605 11.9988 14.0239 11.7656 14.4712 11.5595C14.5235 11.5364 14.5727 11.5082 14.618 11.4761L26.5324 2.35203C27.1295 1.89266 27.9577 1.89869 28.5468 2.37213L34.5216 7.15177C34.8995 7.45433 35.1227 7.90565 35.1327 8.39015C35.1428 8.87465 34.9407 9.33502 34.5758 9.65467L30.7642 12.9889C30.1169 13.5548 29.1398 13.5196 28.5337 12.9155C28.1859 12.5677 28.015 12.0892 28.0633 11.5997C28.1125 11.1112 28.3749 10.6739 28.784 10.4015L29.1217 10.1754L28.005 8.50474L27.6682 8.7299C26.7565 9.33703 26.1715 10.3111 26.063 11.4017C25.9544 12.4923 26.3374 13.5618 27.1124 14.3368C28.4643 15.6898 30.6506 15.7622 32.087 14.5027L35.2925 11.6982L36.2786 13.1778L30.2566 18.3404L23.0625 17.4408C23.1721 16.9262 23.2977 16.4145 23.4445 15.9079L21.5145 15.348C20.84 17.669 20.5284 20.0704 20.5837 22.4878C20.6139 23.7855 20.7526 25.0782 20.8873 26.3286C21.0441 27.7982 21.1929 29.1863 21.1838 30.5926C21.1567 34.8033 19.5253 38.7346 16.8203 41.1058L18.1452 42.6176C20.06 40.9389 21.4783 38.6743 22.3187 36.0839C22.6222 35.9824 23.0082 35.9894 23.3872 36.0216C24.707 36.1392 25.9886 36.5011 27.1918 37.0428C26.7013 37.8309 26.3012 38.6722 26.0037 39.5588L27.9095 40.1991C28.1688 39.4261 28.5247 38.6944 28.9619 38.0098C28.986 38.0259 29.0122 38.038 29.0353 38.0541L29.9993 36.6478C31.893 34.5269 34.6834 33.0483 37.9291 32.5628C42.7892 31.834 47.3075 33.5006 49.741 36.9021L51.3764 35.7321C50.3672 34.3218 49.0585 33.1689 47.5487 32.2944C50.4607 29.8709 54.6754 28.9984 58.269 30.2468L58.9284 28.348C54.397 26.7699 49.0334 28.0465 45.5886 31.3575C43.1963 30.4458 40.4562 30.1503 37.6326 30.5745C33.8742 31.1354 30.6355 32.8784 28.4312 35.3863C26.9093 34.6415 25.2578 34.1721 23.5631 34.0203C23.3409 34.0002 23.1027 33.9911 22.8595 33.9931C23.0685 32.9005 23.1861 31.7687 23.1932 30.6067C23.2032 29.0848 23.0414 27.575 22.8846 26.1145C22.7549 24.9053 22.6212 23.6548 22.5931 22.4406C22.569 21.4314 22.6252 20.4252 22.7418 19.427L30.4476 20.39C30.4918 20.393 30.534 20.396 30.5752 20.396C30.8134 20.396 31.0467 20.3106 31.2286 20.1538L38.2649 14.1227C38.6519 13.792 38.7293 13.2251 38.4478 12.8029L36.6847 10.1573C36.9853 9.60642 37.1582 8.99024 37.1441 8.34492C37.121 7.26334 36.6214 6.25515 35.778 5.57966L29.8042 0.800027C28.4895 -0.251393 26.6399 -0.267476 25.3071 0.757809L13.9254 9.51495L13.5535 9.76926C13.0157 10.0196 12.4046 10.3392 11.8789 10.8016C10.8375 11.7173 10.3922 13.0653 10.0012 14.2554C9.89161 14.5901 9.78305 14.9188 9.66444 15.2244L3.64341 30.6559C3.12976 31.9727 2.66436 34.6495 2.21504 37.2368C1.96073 38.6994 1.7215 40.0815 1.52851 40.8384C1.45211 41.137 1.38074 41.4385 1.30938 41.7401C1.02793 42.9322 0.761552 44.057 0.206692 45.0139C-0.0687274 45.4904 0.0900912 46.1005 0.562526 46.381L4.10378 48.4848C13.5957 54.1229 25.4639 58.0129 35.8524 58.8915C36.6576 58.9598 37.6718 59 38.8298 59C44.6086 59 53.9306 57.9888 58.3534 54.343L57.0758 52.792C52.5083 56.5574 41.1085 57.3164 36.0223 56.8881Z" fill="black"/>
</g>
<defs>
<clipPath id="clip0">
<rect width="59" height="59" fill="white"/>
</clipPath>
</defs>
</svg>
