<svg width="22" height="22" viewBox="0 0 22 22" fill="none" xmlns="http://www.w3.org/2000/svg">
<path d="M11.1134 5.20776C7.99049 5.20776 5.46075 7.72006 5.46075 10.8255C5.46075 12.0468 5.86202 13.1982 6.54244 14.1229L5.82713 16.2165L8.00794 15.5186C8.89771 16.1118 9.97939 16.4433 11.1309 16.4433C14.2538 16.4433 16.801 13.931 16.801 10.8255C16.7835 7.72006 14.2363 5.20776 11.1134 5.20776ZM14.4282 13.1459C14.2887 13.5297 13.6083 13.8961 13.3117 13.931C13.0151 13.9659 13.0151 14.1753 11.3228 13.5297C9.64791 12.8668 8.58367 11.1745 8.49644 11.0523C8.40921 10.9477 7.81603 10.1626 7.81603 9.36002C7.81603 8.55749 8.23474 8.15622 8.39176 7.9992C8.54878 7.84218 8.72324 7.78984 8.82792 7.78984C8.9326 7.78984 9.05473 7.80729 9.14196 7.80729C9.24664 7.80729 9.36876 7.75495 9.50834 8.08643C9.64791 8.41791 9.97939 9.22045 10.0143 9.30768C10.0492 9.39492 10.0841 9.48215 10.0317 9.58683C9.97939 9.69151 9.9445 9.76129 9.87471 9.86597C9.78748 9.9532 9.70025 10.0753 9.63046 10.1451C9.54323 10.2323 9.456 10.3196 9.56067 10.4766C9.66535 10.6336 9.99684 11.1745 10.4853 11.6106C11.1134 12.1689 11.6543 12.3434 11.8113 12.4306C11.9683 12.5178 12.073 12.5004 12.1602 12.3957C12.2649 12.291 12.5789 11.9247 12.6836 11.7502C12.7883 11.5932 12.9104 11.6106 13.05 11.663C13.207 11.7153 14.0095 12.1166 14.184 12.2038C14.341 12.291 14.4631 12.3259 14.498 12.3957C14.5504 12.4306 14.5504 12.7621 14.4282 13.1459Z" fill="white"/>
<path d="M16.4695 0.00872803H5.51309C2.4774 0.00872803 0 2.48613 0 5.52181V16.4956C0 19.5139 2.4774 21.9913 5.51309 21.9913H16.4869C19.5226 21.9913 22 19.5139 22 16.4782V5.52181C21.9826 2.48613 19.5052 0.00872803 16.4695 0.00872803ZM11.1134 17.5075C9.92704 17.5075 8.82791 17.2109 7.85091 16.6701L4.11737 17.8565L5.33862 14.2799C4.72799 13.268 4.37906 12.0817 4.37906 10.8255C4.37906 7.12689 7.3973 4.14354 11.1134 4.14354C14.8295 4.14354 17.8477 7.12689 17.8477 10.8255C17.8477 14.5242 14.8295 17.5075 11.1134 17.5075Z" fill="white"/>
</svg>
